<?xml version="1.0" encoding="UTF-8" standalone="no"?>
<!-- Created with Inkscape (http://www.inkscape.org/) -->

<svg
   xmlns:dc="http://purl.org/dc/elements/1.1/"
   xmlns:cc="http://creativecommons.org/ns#"
   xmlns:rdf="http://www.w3.org/1999/02/22-rdf-syntax-ns#"
   xmlns:svg="http://www.w3.org/2000/svg"
   xmlns="http://www.w3.org/2000/svg"
   xmlns:sodipodi="http://sodipodi.sourceforge.net/DTD/sodipodi-0.dtd"
   xmlns:inkscape="http://www.inkscape.org/namespaces/inkscape"
   width="1775.86"
   height="1785.5902"
   id="svg2"
   version="1.1"
   inkscape:version="0.48.1 r9760"
   inkscape:export-filename="/home/luispedro/texture.png"
   inkscape:export-xdpi="2"
   inkscape:export-ydpi="2"
   sodipodi:docname="drawing.svg">
  <defs
     id="defs4" />
  <sodipodi:namedview
     id="base"
     pagecolor="#ffffff"
     bordercolor="#666666"
     borderopacity="1.0"
     inkscape:pageopacity="0.0"
     inkscape:pageshadow="2"
     inkscape:zoom="0.20206634"
     inkscape:cx="-373.4888"
     inkscape:cy="686.06906"
     inkscape:document-units="px"
     inkscape:current-layer="layer1"
     showgrid="false"
     showguides="true"
     inkscape:guide-bbox="true"
     fit-margin-top="0"
     fit-margin-left="0"
     fit-margin-right="0"
     fit-margin-bottom="0"
     inkscape:window-width="1320"
     inkscape:window-height="713"
     inkscape:window-x="42"
     inkscape:window-y="1"
     inkscape:window-maximized="0">
    <sodipodi:guide
       orientation="0,1"
       position="789.85282,1649.6458"
       id="guide2987" />
    <sodipodi:guide
       orientation="0,1"
       position="389.40838,1785.0902"
       id="guide2989" />
    <sodipodi:guide
       orientation="1,0"
       position="387.92959,1373.7498"
       id="guide2986" />
  </sodipodi:namedview>
  <metadata
     id="metadata7">
    <rdf:RDF>
      <cc:Work
         rdf:about="">
        <dc:format>image/svg+xml</dc:format>
        <dc:type
           rdf:resource="http://purl.org/dc/dcmitype/StillImage" />
        <dc:title></dc:title>
      </cc:Work>
    </rdf:RDF>
  </metadata>
  <g
     inkscape:label="Layer 1"
     inkscape:groupmode="layer"
     id="layer1"
     transform="translate(-2.791619,-142.61775)">
    <path
       style="fill:#d45500;stroke:#000bae;stroke-width:1px;stroke-linecap:butt;stroke-linejoin:miter;stroke-opacity:1"
       d="m 390.72121,143.11776 -387.429591,-1e-5 c 65.71429,117.14286 84.183605,135.44444 84.183605,135.44444 0,0 -145.791635,118.3825 -44.739985,229.46134 48.142184,52.91925 222.767531,196.6384 258.473351,507.25907 38.79923,337.5317 89.51262,912.4254 89.51262,912.4254 -8.70109,-344.2432 2.92632,-692.1761 0,-1029.3219 0,-256.81353 -98.80871,-495.85363 -51.45454,-619.99532 0,0 0.35295,10e-6 51.45454,-135.27302 z"
       id="path2985"
       inkscape:connector-curvature="0"
       sodipodi:nodetypes="cccsscccc" />
    <path
       style="fill:#d45500;stroke:#000bae;stroke-width:1px;stroke-linecap:butt;stroke-linejoin:miter;stroke-opacity:1"
       d="m 390.72121,143.11776 387.4296,-1e-5 c -65.71429,117.14286 -84.18361,135.44444 -84.18361,135.44444 0,0 145.79164,118.3825 44.73999,229.46133 -48.14219,52.91925 -222.76754,196.63841 -258.47336,507.25908 -38.79923,337.5317 -89.51262,912.4254 -89.51262,912.4254 8.70109,-344.2432 -2.92632,-692.1761 0,-1029.3219 0,-256.81354 98.80871,-495.85363 51.45454,-619.99532 0,0 -0.35295,10e-6 -51.45454,-135.27302 z"
       id="path2985-4"
       inkscape:connector-curvature="0"
       sodipodi:nodetypes="cccsscccc" />
  </g>
</svg>
